<?xml version="1.0" encoding="UTF-8"?>
<svg width="20px" height="20px" viewBox="0 0 20 20" version="1.1" xmlns="http://www.w3.org/2000/svg" xmlns:xlink="http://www.w3.org/1999/xlink">
    <!-- Generator: Sketch 46.2 (44496) - http://www.bohemiancoding.com/sketch -->
    <title>search</title>
    <desc>Created with Sketch.</desc>
    <defs></defs>
    <g id="Page-1" stroke="none" stroke-width="1" fill="none" fill-rule="evenodd">
        <g id="DevTest" transform="translate(-957.000000, -287.000000)" fill="#FFFFFF">
            <g id="Search-Bar" transform="translate(430.000000, 271.000000)">
                <path d="M541.233074,29.1729544 L546.795559,34.7225522 C547.074996,35.0216537 547.067014,35.488703 546.777519,35.7780626 C546.488024,36.0674223 546.021399,36.0747584 545.722967,35.7946421 L540.161286,30.2458455 C538.770357,31.3985899 536.985112,32.0913967 535.038204,32.0913967 C530.598827,32.0913967 527,28.4892149 527,24.0456984 C527,19.6021819 530.598827,16 535.038204,16 L535.038204,16 C539.477582,16 543.076409,19.6021819 543.076409,24.0456984 C543.076409,25.9941403 542.384447,27.7808152 541.233074,29.1729544 Z M541.290141,24.0456984 C541.290141,20.58963 538.491054,17.787933 535.038204,17.787933 C531.585355,17.787933 528.786268,20.58963 528.786268,24.0456984 C528.786268,27.5017668 531.585355,30.3034638 535.038204,30.3034638 C538.491054,30.3034638 541.290141,27.5017668 541.290141,24.0456984 Z" id="search"></path>
            </g>
        </g>
    </g>
</svg>